<svg xmlns="http://www.w3.org/2000/svg" xmlns:xlink="http://www.w3.org/1999/xlink" width="124" height="112" viewBox="0 0 124 112">
    <defs>
        <linearGradient id="5ogtw9jl3b" x1="3.792%" x2="71.83%" y1="82.166%" y2="55.854%">
            <stop offset="0%" stop-color="#0A6836"/>
            <stop offset="100%" stop-color="#8DC63F"/>
        </linearGradient>
        <path id="660r9h59pa" d="M0 0L113.04 0 113.04 102.326 0 102.326z"/>
    </defs>
    <g fill="none" fill-rule="evenodd">
        <g>
            <g>
                <g>
                    <g transform="translate(-632 -393) translate(507 327) translate(125 66) translate(5.588 4.73)">
                        <mask id="dk2rba8gdc" fill="#fff">
                            <use xlink:href="#660r9h59pa"/>
                        </mask>
                        <path fill="url(#5ogtw9jl3b)" d="M102.293 93.263v-.05c0-2.53-1.825-4.733-4.5-4.733-2.65 0-4.425 2.153-4.425 4.682v.05c0 2.53 1.825 4.733 4.476 4.733 2.674 0 4.449-2.154 4.449-4.682zm-13.9 0v-.05c0-5.034 4.05-9.115 9.45-9.115 5.4 0 9.4 4.03 9.4 9.064v.05c0 5.034-4.05 9.114-9.45 9.114-5.4 0-9.4-4.03-9.4-9.063zm-14.098-8.816h13.998v4.258h-9.148v2.98h8.274v4.03h-8.274v6.26h-4.85V84.448zm-17.624 0h4.524l7.2 9.266v-9.266h4.8v17.529h-4.25l-7.475-9.614v9.614h-4.799v-17.53zm-6.075 17.529h4.875v-17.53h-4.875v17.53zm-15.273-17.53h14.073v4.134h-9.273v2.653h8.4v3.832h-8.4v2.78h9.4v4.13h-14.2V84.448zM19.199 99.372l2.7-3.23c1.725 1.377 3.649 2.105 5.674 2.105 1.3 0 2-.451 2-1.202v-.05c0-.726-.575-1.128-2.95-1.68-3.725-.85-6.598-1.901-6.598-5.508v-.05c0-3.255 2.574-5.61 6.773-5.61 2.976 0 5.301.803 7.2 2.33l-2.424 3.43c-1.6-1.127-3.35-1.727-4.9-1.727-1.176 0-1.75.5-1.75 1.127v.05c0 .801.599 1.152 3.024 1.702 4.025.877 6.525 2.18 6.525 5.46v.05c0 3.58-2.824 5.71-7.075 5.71-3.1 0-6.05-.977-8.199-2.907zm-7.5-4.306l-1.95-4.983-1.974 4.983H11.7zm-4.25-10.742h4.676l7.449 17.653h-5.2l-1.275-3.13H6.35l-1.25 3.13H0l7.45-17.653zm36.742-57.705l-5.084 7.45 64.02 45.479-58.936-52.929zM12.785 72.653l-4.974 7.363 56.259.666-51.285-8.03zm7.765-11.35l-5.533 8.081 61.503 7.837-55.97-15.918zm8.011-11.719l-5.045 7.38L84.679 75 28.561 49.584zm7.882-11.616L31.34 45.49l60.896 29.059-55.792-36.58zm16.291-23.936l-5.92 8.664 60.217 58.216-54.297-66.88zm60.306 73.434L55.875 9.53 62.352 0l50.688 87.466z" mask="url(#dk2rba8gdc)"/>
                    </g>
                </g>
            </g>
        </g>
    </g>
</svg>
