<svg width="16" height="16" viewBox="0 0 16 16" fill="none" xmlns="http://www.w3.org/2000/svg">
<path d="M6.375 14.875C6.375 15.0408 6.30915 15.1998 6.19194 15.317C6.07473 15.4342 5.91576 15.5 5.75 15.5H0.75C0.58424 15.5 0.425269 15.4342 0.308058 15.317C0.190848 15.1998 0.125 15.0408 0.125 14.875V1.12503C0.125 0.95927 0.190848 0.800299 0.308058 0.683089C0.425269 0.565879 0.58424 0.500031 0.75 0.500031H5.75C5.91576 0.500031 6.07473 0.565879 6.19194 0.683089C6.30915 0.800299 6.375 0.95927 6.375 1.12503C6.375 1.29079 6.30915 1.44976 6.19194 1.56697C6.07473 1.68418 5.91576 1.75003 5.75 1.75003H1.375V14.25H5.75C5.91576 14.25 6.07473 14.3159 6.19194 14.4331C6.30915 14.5503 6.375 14.7093 6.375 14.875ZM14.9422 7.55784L11.8172 4.43284C11.6999 4.31557 11.5409 4.24968 11.375 4.24968C11.2091 4.24968 11.0501 4.31557 10.9328 4.43284C10.8155 4.55012 10.7497 4.70918 10.7497 4.87503C10.7497 5.04088 10.8155 5.19994 10.9328 5.31722L12.9914 7.37503H5.75C5.58424 7.37503 5.42527 7.44088 5.30806 7.55809C5.19085 7.6753 5.125 7.83427 5.125 8.00003C5.125 8.16579 5.19085 8.32476 5.30806 8.44197C5.42527 8.55918 5.58424 8.62503 5.75 8.62503H12.9914L10.9328 10.6828C10.8155 10.8001 10.7497 10.9592 10.7497 11.125C10.7497 11.2909 10.8155 11.4499 10.9328 11.5672C11.0501 11.6845 11.2091 11.7504 11.375 11.7504C11.5409 11.7504 11.6999 11.6845 11.8172 11.5672L14.9422 8.44222C15.0003 8.38417 15.0464 8.31524 15.0778 8.23937C15.1093 8.16349 15.1255 8.08216 15.1255 8.00003C15.1255 7.9179 15.1093 7.83657 15.0778 7.76069C15.0464 7.68482 15.0003 7.61589 14.9422 7.55784Z" fill="currentColor"/>
</svg>
