<svg width="20" height="15" viewBox="0 0 20 15" fill="none" xmlns="http://www.w3.org/2000/svg">
<path d="M19.9999 8.62498C19.9999 8.87362 19.9011 9.11208 19.7253 9.2879C19.5495 9.46371 19.311 9.56248 19.0624 9.56248H18.4374V10.1875C18.4374 10.4361 18.3386 10.6746 18.1628 10.8504C17.987 11.0262 17.7485 11.125 17.4999 11.125C17.2512 11.125 17.0128 11.0262 16.837 10.8504C16.6611 10.6746 16.5624 10.4361 16.5624 10.1875V9.56248H15.9374C15.6887 9.56248 15.4503 9.46371 15.2745 9.2879C15.0986 9.11208 14.9999 8.87362 14.9999 8.62498C14.9999 8.37634 15.0986 8.13789 15.2745 7.96207C15.4503 7.78626 15.6887 7.68748 15.9374 7.68748H16.5624V7.06248C16.5624 6.81384 16.6611 6.57539 16.837 6.39957C17.0128 6.22376 17.2512 6.12498 17.4999 6.12498C17.7485 6.12498 17.987 6.22376 18.1628 6.39957C18.3386 6.57539 18.4374 6.81384 18.4374 7.06248V7.68748H19.0624C19.311 7.68748 19.5495 7.78626 19.7253 7.96207C19.9011 8.13789 19.9999 8.37634 19.9999 8.62498ZM15.7178 13.0219C15.8778 13.2123 15.9556 13.4584 15.934 13.7062C15.9125 13.9539 15.7934 14.183 15.603 14.343C15.4126 14.5029 15.1664 14.5807 14.9187 14.5591C14.6709 14.5376 14.4419 14.4185 14.2819 14.2281C13.2124 12.9547 11.328 11.4375 8.43738 11.4375C6.18034 11.4375 4.10456 12.4281 2.59284 14.2281C2.43288 14.4185 2.20383 14.5376 1.95608 14.5591C1.70833 14.5807 1.46217 14.5029 1.27175 14.343C1.08133 14.183 0.962258 13.9539 0.94072 13.7062C0.919183 13.4584 0.996947 13.2123 1.15691 13.0219C2.17544 11.7917 3.48213 10.8323 4.96081 10.2289C4.04131 9.50598 3.37002 8.51441 3.04038 7.39216C2.71074 6.26992 2.73914 5.07283 3.12162 3.96748C3.50411 2.86213 4.22165 1.9035 5.1744 1.225C6.12715 0.546504 7.26772 0.181885 8.43738 0.181885C9.60703 0.181885 10.7476 0.546504 11.7003 1.225C12.6531 1.9035 13.3706 2.86213 13.7531 3.96748C14.1356 5.07283 14.164 6.26992 13.8344 7.39216C13.5047 8.51441 12.8334 9.50598 11.9139 10.2289C13.3927 10.8321 14.6995 11.7915 15.7178 13.0219ZM8.43738 9.56248C9.17906 9.56248 9.90408 9.34255 10.5208 8.9305C11.1374 8.51844 11.6181 7.93277 11.9019 7.24755C12.1858 6.56232 12.26 5.80832 12.1153 5.0809C11.9706 4.35347 11.6135 3.68528 11.089 3.16083C10.5646 2.63639 9.89639 2.27923 9.16896 2.13454C8.44153 1.98985 7.68753 2.06411 7.00231 2.34794C6.31709 2.63176 5.73142 3.11241 5.31936 3.7291C4.90731 4.34578 4.68737 5.0708 4.68737 5.81248C4.68841 6.80673 5.08383 7.75996 5.78687 8.46299C6.4899 9.16603 7.44313 9.56145 8.43738 9.56248Z" fill="currentColor"/>
</svg>
