<svg width="24" height="24" viewBox="0 0 24 24" fill="currentColor" xmlns="http://www.w3.org/2000/svg">
<path d="M10.125 15.3281H10.0781V15.375V19.5C10.0781 19.9848 9.88552 20.4498 9.54268 20.7927C9.19984 21.1355 8.73485 21.3281 8.25 21.3281H4.5C4.01515 21.3281 3.55016 21.1355 3.20732 20.7927C2.86448 20.4498 2.67188 19.9848 2.67188 19.5V5.25C2.67188 4.96406 2.78546 4.68984 2.98765 4.48765C3.18984 4.28546 3.46406 4.17188 3.75 4.17188H20.25C20.5359 4.17188 20.8102 4.28546 21.0123 4.48765C21.2145 4.68984 21.3281 4.96406 21.3281 5.25V16.5C21.3281 16.9848 21.1355 17.4498 20.7927 17.7927C20.4498 18.1355 19.9848 18.3281 19.5 18.3281H15.75C15.2652 18.3281 14.8002 18.1355 14.4573 17.7927C14.1145 17.4498 13.9219 16.9848 13.9219 16.5V15.375V15.3281H13.875H10.125ZM19.125 10.1719H19.1719V10.125V6.375V6.32812H19.125H16.125H16.0781V6.375V10.125V10.1719H16.125H19.125ZM7.92188 6.375V6.32812H7.875H4.875H4.82812V6.375V10.125V10.1719H4.875H7.875H7.92188V10.125V6.375ZM7.875 19.1719H7.92188V19.125V12.375V12.3281H7.875H4.875H4.82812V12.375V19.125V19.1719H4.875H7.875ZM10.0781 13.125V13.1719H10.125H13.875H13.9219V13.125V6.375V6.32812H13.875H10.125H10.0781V6.375V13.125ZM16.0781 16.125V16.1719H16.125H19.125H19.1719V16.125V12.375V12.3281H19.125H16.125H16.0781V12.375V16.125Z" fill="currentColor" stroke="white" stroke-width="0.09375"/>
</svg>
