<svg width="16" height="17" viewBox="0 0 16 17" fill="none" xmlns="http://www.w3.org/2000/svg">
<mask id="path-4-inside-1_5421_17583" fill="white">
<path d="M15.3547 7.26955L9.1047 1.01955C8.81168 0.726628 8.41433 0.562073 8.00001 0.562073C7.58569 0.562073 7.18833 0.726628 6.89532 1.01955L0.645321 7.26955C0.499638 7.41434 0.384154 7.58661 0.305565 7.77638C0.226977 7.96615 0.186849 8.16963 0.187508 8.37502V15.875C0.187508 16.1237 0.28628 16.3621 0.462095 16.5379C0.637911 16.7137 0.876368 16.8125 1.12501 16.8125H14.875C15.1236 16.8125 15.3621 16.7137 15.5379 16.5379C15.7137 16.3621 15.8125 16.1237 15.8125 15.875V8.37502C15.8132 8.16963 15.773 7.96615 15.6945 7.77638C15.6159 7.58661 15.5004 7.41434 15.3547 7.26955ZM13.9375 14.9375H2.06251V8.50393L8.00001 2.56643L13.9375 8.50393V14.9375Z"/>
</mask>
<path d="M15.3547 7.26955L9.1047 1.01955C8.81168 0.726628 8.41433 0.562073 8.00001 0.562073C7.58569 0.562073 7.18833 0.726628 6.89532 1.01955L0.645321 7.26955C0.499638 7.41434 0.384154 7.58661 0.305565 7.77638C0.226977 7.96615 0.186849 8.16963 0.187508 8.37502V15.875C0.187508 16.1237 0.28628 16.3621 0.462095 16.5379C0.637911 16.7137 0.876368 16.8125 1.12501 16.8125H14.875C15.1236 16.8125 15.3621 16.7137 15.5379 16.5379C15.7137 16.3621 15.8125 16.1237 15.8125 15.875V8.37502C15.8132 8.16963 15.773 7.96615 15.6945 7.77638C15.6159 7.58661 15.5004 7.41434 15.3547 7.26955ZM13.9375 14.9375H2.06251V8.50393L8.00001 2.56643L13.9375 8.50393V14.9375Z" fill="currentColor" stroke="#608826" stroke-width="0.1875" mask="url(#path-4-inside-1_5421_17583)"/>
</svg>
