<svg width="16" height="10" viewBox="0 0 16 10" fill="none" xmlns="http://www.w3.org/2000/svg">
<path d="M3.07813 1.625C3.07813 1.9124 2.9929 2.19335 2.83323 2.43231C2.67356 2.67128 2.44661 2.85753 2.18109 2.96751C1.91556 3.0775 1.62339 3.10627 1.34151 3.0502C1.05963 2.99414 0.800709 2.85574 0.597486 2.65252C0.394263 2.44929 0.255866 2.19037 0.199797 1.90849C0.143728 1.62661 0.172505 1.33444 0.282488 1.06891C0.392472 0.80339 0.578723 0.576443 0.817688 0.416772C1.05665 0.2571 1.3376 0.171876 1.625 0.171876C2.01039 0.171876 2.38 0.324973 2.65252 0.597487C2.92503 0.87 3.07813 1.23961 3.07813 1.625ZM7.19269 0.416772C7.43165 0.2571 7.7126 0.171876 8 0.171876C8.38539 0.171876 8.755 0.324973 9.02751 0.597487C9.30003 0.87 9.45313 1.23961 9.45313 1.625C9.45313 1.9124 9.3679 2.19335 9.20823 2.43231C9.04856 2.67128 8.82161 2.85753 8.55609 2.96751C8.29056 3.0775 7.99839 3.10627 7.71651 3.0502C7.43463 2.99414 7.17571 2.85574 6.97249 2.65252C6.76926 2.44929 6.63087 2.19037 6.5748 1.90849C6.51873 1.62661 6.5475 1.33444 6.65749 1.06891C6.76747 0.80339 6.95372 0.576443 7.19269 0.416772ZM15.1823 2.83323C14.9433 2.9929 14.6624 3.07813 14.375 3.07813C13.9896 3.07813 13.62 2.92503 13.3475 2.65252C13.075 2.38 12.9219 2.01039 12.9219 1.625C12.9219 1.3376 13.0071 1.05665 13.1668 0.817688C13.3264 0.578723 13.5534 0.392472 13.8189 0.282488C14.0844 0.172505 14.3766 0.143728 14.6585 0.199797C14.9404 0.255866 15.1993 0.394263 15.4025 0.597487C15.6057 0.80071 15.7441 1.05963 15.8002 1.34151C15.8563 1.62339 15.8275 1.91556 15.7175 2.18109C15.6075 2.44661 15.4213 2.67356 15.1823 2.83323ZM0.817688 7.16677C1.05665 7.0071 1.3376 6.92188 1.625 6.92188C2.01039 6.92188 2.38 7.07497 2.65252 7.34749C2.92503 7.62 3.07813 7.98961 3.07813 8.375C3.07813 8.6624 2.9929 8.94335 2.83323 9.18232C2.67356 9.42128 2.44661 9.60753 2.18109 9.71751C1.91556 9.8275 1.62339 9.85627 1.34151 9.80021C1.05963 9.74414 0.800709 9.60574 0.597486 9.40252C0.394263 9.19929 0.255866 8.94037 0.199797 8.65849C0.143728 8.37661 0.172505 8.08444 0.282488 7.81891C0.392472 7.55339 0.578723 7.32644 0.817688 7.16677ZM7.19269 7.16677C7.43165 7.0071 7.7126 6.92188 8 6.92188C8.38539 6.92188 8.755 7.07497 9.02751 7.34749C9.30003 7.62 9.45313 7.98961 9.45313 8.375C9.45313 8.6624 9.3679 8.94335 9.20823 9.18232C9.04856 9.42128 8.82161 9.60753 8.55609 9.71751C8.29056 9.8275 7.99839 9.85627 7.71651 9.80021C7.43463 9.74414 7.17571 9.60574 6.97249 9.40252C6.76926 9.19929 6.63087 8.94037 6.5748 8.65849C6.51873 8.37661 6.5475 8.08444 6.65749 7.81891C6.76747 7.55339 6.95372 7.32644 7.19269 7.16677ZM13.5677 7.16677C13.8067 7.0071 14.0876 6.92188 14.375 6.92188C14.7604 6.92188 15.13 7.07497 15.4025 7.34749C15.675 7.62 15.8281 7.98961 15.8281 8.375C15.8281 8.6624 15.7429 8.94335 15.5832 9.18232C15.4236 9.42128 15.1966 9.60753 14.9311 9.71751C14.6656 9.8275 14.3734 9.85627 14.0915 9.80021C13.8096 9.74414 13.5507 9.60574 13.3475 9.40252C13.1443 9.19929 13.0059 8.94037 12.9498 8.65849C12.8937 8.37661 12.9225 8.08444 13.0325 7.81891C13.1425 7.55339 13.3287 7.32644 13.5677 7.16677Z" fill="currentColor" stroke="white" stroke-width="0.09375"/>
</svg>
